<svg id="Light-PNG" xmlns="http://www.w3.org/2000/svg" width="770.22" height="136.032" viewBox="0 0 770.22 136.032">
  <defs>
    <style>
      .cls-1, .cls-3 {
        fill: #fff;
      }

      .cls-1 {
        stroke: #fff;
        stroke-width: 1px;
      }

      .cls-1, .cls-2, .cls-3 {
        fill-rule: evenodd;
      }

      .cls-2 {
        fill: #eecd85;
      }
    </style>
  </defs>
  <path id="Ellipse_3_copy" data-name="Ellipse 3 copy" class="cls-1" d="M2433.88,515.633l-0.94-24.268a0.8,0.8,0,0,0-.89-0.879,0.879,0.879,0,0,0-.75,1.033l-0.69,24.128Zm-2.51,5.008-21.96,19.968a1.086,1.086,0,0,1-1.51-.015c-0.71-.732.27-1.531,0.27-1.531l20.44-21.262Zm0.86-7.025a3.678,3.678,0,1,1-3.69,3.678A3.691,3.691,0,0,1,2432.23,513.616Zm0.02,2.028a1.633,1.633,0,1,1-1.65,1.632A1.642,1.642,0,0,1,2432.25,515.644Z" transform="translate(-2374.5 -449.656)"/>
  <path id="hronoWise" class="cls-2" d="M2828.18,567.228a36.356,36.356,0,0,1-17.83,4.293,35.777,35.777,0,0,1-17.66-4.293,32.133,32.133,0,0,1-12.22-11.791,34.874,34.874,0,0,1,0-34.164,31.849,31.849,0,0,1,12.22-11.67,36.194,36.194,0,0,1,17.66-4.233,36.782,36.782,0,0,1,17.83,4.233,31.449,31.449,0,0,1,12.22,11.609,35.406,35.406,0,0,1,0,34.225A31.578,31.578,0,0,1,2828.18,567.228Zm-1.09-39.667a17.2,17.2,0,0,0-6.83-6.953,21.162,21.162,0,0,0-19.65,0,17.71,17.71,0,0,0-6.83,6.953,24.2,24.2,0,0,0,0,21.587,17.594,17.594,0,0,0,6.83,7.014,19.478,19.478,0,0,0,9.74,2.419,20.048,20.048,0,0,0,9.91-2.419,17.089,17.089,0,0,0,6.83-7.014A24.728,24.728,0,0,0,2827.09,527.561Zm-79.02,8.043q0-8.586-4.06-12.819t-11.3-4.233a19.866,19.866,0,0,0-9.44,2.177,14.9,14.9,0,0,0-6.34,6.47,23.186,23.186,0,0,0-2.24,10.823v32.652h-15.12V506.1h14.39v8.393a23.41,23.41,0,0,1,7.32-5.793,32.2,32.2,0,0,1,14.93-3.326,30.813,30.813,0,0,1,13.85,3.024,22.2,22.2,0,0,1,9.62,9.251q3.5,6.23,3.5,16.024v37h-15.11V535.6Zm-78.43,31.624a36.368,36.368,0,0,1-17.84,4.293,35.765,35.765,0,0,1-17.65-4.293,32.133,32.133,0,0,1-12.22-11.791,34.874,34.874,0,0,1,0-34.164,31.849,31.849,0,0,1,12.22-11.67,36.182,36.182,0,0,1,17.65-4.233,36.794,36.794,0,0,1,17.84,4.233,31.449,31.449,0,0,1,12.22,11.609,35.406,35.406,0,0,1,0,34.225A31.578,31.578,0,0,1,2669.64,567.228Zm-1.09-39.667a17.2,17.2,0,0,0-6.83-6.953,21.162,21.162,0,0,0-19.65,0,17.71,17.71,0,0,0-6.83,6.953,24.2,24.2,0,0,0,0,21.587,17.594,17.594,0,0,0,6.83,7.014,19.466,19.466,0,0,0,9.73,2.419,20.06,20.06,0,0,0,9.92-2.419,17.089,17.089,0,0,0,6.83-7.014A24.728,24.728,0,0,0,2668.55,527.561Zm-58.59-8.1c-0.56-.04-1.13-0.061-1.69-0.061q-8.595,0-13.67,5.019t-5.08,14.935v31.322h-15.11V506.1h14.39v9.46a20.286,20.286,0,0,1,7.44-6.8q6.225-3.384,15.54-3.386v14.391A11.049,11.049,0,0,0,2609.96,519.459ZM2541.27,535.6q0-8.586-4.05-12.819t-11.31-4.233a19.825,19.825,0,0,0-9.43,2.177,14.924,14.924,0,0,0-6.35,6.47,23.31,23.31,0,0,0-2.24,10.823v32.652h-15.11V480.942h15.11v32.717a23.642,23.642,0,0,1,6.59-4.963,32.273,32.273,0,0,1,14.94-3.326,30.843,30.843,0,0,1,13.85,3.024,22.173,22.173,0,0,1,9.61,9.251q3.51,6.23,3.51,16.024v37h-15.12V535.6Z" transform="translate(-2374.5 -449.656)"/>
  <path id="Wise" class="cls-3" d="M3144.66,540.925q-0.06,1.209-.18,2.3h-50.62a18.389,18.389,0,0,0,2.25,6.168,17.683,17.683,0,0,0,7.5,6.893,24.5,24.5,0,0,0,11.12,2.419,26.826,26.826,0,0,0,9.8-1.693,20.89,20.89,0,0,0,7.74-5.321l8.1,9.311a28.44,28.44,0,0,1-10.94,7.8,43.215,43.215,0,0,1-33.87-1.572,31.071,31.071,0,0,1-12.45-11.791,32.905,32.905,0,0,1-4.42-17.052,33.534,33.534,0,0,1,4.3-17.112,30.794,30.794,0,0,1,11.85-11.67,34.661,34.661,0,0,1,17.23-4.233,33.952,33.952,0,0,1,16.81,4.112,29.751,29.751,0,0,1,11.61,11.61,35.344,35.344,0,0,1,4.23,17.656Q3144.72,539.717,3144.66,540.925Zm-16.38-14.392a17.774,17.774,0,0,0-6.59-6.651,20.564,20.564,0,0,0-19.35,0,17.087,17.087,0,0,0-6.53,6.712,18.963,18.963,0,0,0-2.1,6.591h36.69A17.561,17.561,0,0,0,3128.28,526.533Zm-88.16,4.959a70.927,70.927,0,0,0,7.8,1.39,68.977,68.977,0,0,1,8.52,1.633,36.076,36.076,0,0,1,7.8,2.963,15.036,15.036,0,0,1,5.75,5.261,16.1,16.1,0,0,1,2.17,8.828,16.41,16.41,0,0,1-3.56,10.521,22.99,22.99,0,0,1-10.1,6.954,44.071,44.071,0,0,1-15.6,2.479,56.559,56.559,0,0,1-15.54-2.117,39.863,39.863,0,0,1-11.79-5.139l5.8-11.489a41.19,41.19,0,0,0,10.4,4.6,41.869,41.869,0,0,0,12.1,1.814q7.125,0,10.34-1.935a5.869,5.869,0,0,0,3.2-5.2,4.521,4.521,0,0,0-2.18-4.051,16.913,16.913,0,0,0-5.68-2.116q-3.51-.726-7.8-1.331c-2.86-.4-5.73-0.946-8.59-1.632a29.65,29.65,0,0,1-7.8-3.023,16.123,16.123,0,0,1-5.68-5.382,16.346,16.346,0,0,1-2.18-8.949,16.978,16.978,0,0,1,3.51-10.7,22.409,22.409,0,0,1,9.85-7.014,41.444,41.444,0,0,1,15.06-2.479,61.7,61.7,0,0,1,13.18,1.451,35.686,35.686,0,0,1,11.01,4.112l-5.81,11.489a30.637,30.637,0,0,0-9.25-3.81,42.873,42.873,0,0,0-9.25-1.028q-6.9,0-10.22,2.056c-2.22,1.372-3.32,3.105-3.32,5.2a4.881,4.881,0,0,0,2.17,4.354A17.746,17.746,0,0,0,3040.12,531.492Zm-43.3-36.038a9.515,9.515,0,0,1-6.95-2.661,8.983,8.983,0,0,1,0-12.879,9.644,9.644,0,0,1,6.95-2.6,9.942,9.942,0,0,1,6.96,2.479,8.084,8.084,0,0,1,2.72,6.228,9.243,9.243,0,0,1-2.66,6.712A9.379,9.379,0,0,1,2996.82,495.454Zm-63.12,75.22-20.94-62.6-21.27,62.6h-16.81l-28.06-84.653h16.33l21.06,64.4,21.87-64.4h14.51l21.38,64.732,21.68-64.732h14.99l-28.05,84.653H2933.7Zm70.62,0h-15.11V506.1h15.11v64.578Z" transform="translate(-2374.5 -449.656)"/>
  <path class="cls-2" d="M2406.68,581.3a68.3,68.3,0,0,0,47.78.155l-0.05-7.777a60.868,60.868,0,0,1-47.66-.241Zm0.03-119.19a60.859,60.859,0,0,1,47.65-.279l0.09-7.93a68.321,68.321,0,0,0-47.73.142Zm60.63,75.065a40.9,40.9,0,1,1-1.23-41.029l13.48-8.448a56.8,56.8,0,1,0,1.27,57.895Z" transform="translate(-2374.5 -449.656)"/>
</svg>
